<svg xmlns="http://www.w3.org/2000/svg" width="1024" height="1024" viewBox="0 0 1024 1024" role="img" aria-labelledby="title desc">
  <title id="title">plumafina app icon</title>
  <desc id="desc">A cobalt and indigo rounded-square icon with a white writing card, structured text lines, a transformation spark, and a text cursor.</desc>
  <defs>
    <linearGradient id="tile" x1="120" y1="90" x2="900" y2="940" gradientUnits="userSpaceOnUse">
      <stop offset="0" stop-color="#2F6FEA"/>
      <stop offset="0.52" stop-color="#4666EB"/>
      <stop offset="1" stop-color="#6950E8"/>
    </linearGradient>
    <linearGradient id="paper" x1="230" y1="190" x2="820" y2="850" gradientUnits="userSpaceOnUse">
      <stop offset="0" stop-color="#FFFFFF"/>
      <stop offset="1" stop-color="#F4F6FF"/>
    </linearGradient>
    <linearGradient id="ink" x1="310" y1="330" x2="710" y2="650" gradientUnits="userSpaceOnUse">
      <stop offset="0" stop-color="#2F6FEA"/>
      <stop offset="1" stop-color="#6950E8"/>
    </linearGradient>
  </defs>

  <rect x="24" y="24" width="976" height="976" rx="232" fill="url(#tile)"/>
  <path d="M255 42h472c-96 82-203 120-337 120-69 0-117-8-173-28z" fill="#FFFFFF" opacity="0.10"/>
  <circle cx="846" cy="186" r="128" fill="#FFFFFF" opacity="0.075"/>

  <rect x="224" y="224" width="604" height="644" rx="100" fill="#1F43B6" opacity="0.28"/>
  <rect x="200" y="184" width="604" height="644" rx="100" fill="url(#paper)"/>

  <rect x="302" y="340" width="282" height="38" rx="19" fill="url(#ink)"/>
  <rect x="302" y="422" width="356" height="38" rx="19" fill="#D8E3FF"/>
  <rect x="302" y="504" width="220" height="38" rx="19" fill="#E5DFFF"/>

  <rect x="302" y="612" width="176" height="38" rx="19" fill="#D8E3FF"/>
  <path d="M562 564v136M516 598h92M516 666h92" fill="none" stroke="#6950E8" stroke-width="22" stroke-linecap="round"/>

  <path d="M700 252l14 34 34 14-34 14-14 34-14-34-34-14 34-14z" fill="#FFFFFF"/>
  <path d="M774 330l8 19 19 8-19 8-8 19-8-19-19-8 19-8z" fill="#FFFFFF" opacity="0.9"/>
  <circle cx="726" cy="342" r="7" fill="#FFFFFF" opacity="0.82"/>
</svg>
